<svg width="255" height="45" viewBox="0 0 255 45" fill="none" xmlns="http://www.w3.org/2000/svg">
<path d="M51.221 11.3451C49.7112 11.3451 48.947 11.8981 48.947 12.9837C48.9426 13.2112 48.994 13.4357 49.0956 13.6339C49.1973 13.832 49.3455 13.9966 49.5248 14.1103C50.3763 14.5839 51.2694 14.9613 52.1902 15.2368C53.2548 15.56 54.2371 16.1488 55.0607 16.9574C55.6618 17.7302 55.9689 18.7279 55.9181 19.743C55.96 20.4288 55.8611 21.1161 55.6288 21.7543C55.3965 22.3924 55.0368 22.9651 54.576 23.4299C53.5729 24.3075 52.3156 24.7584 51.0346 24.6999C49.6974 24.6657 48.367 24.4803 47.0644 24.1468L46.3188 23.983L46.5984 21.5455C48.0126 21.7746 49.4379 21.9114 50.8668 21.9552C52.3393 21.9552 53.0663 21.2792 53.0663 19.9069C53.0763 19.6847 53.0354 19.4634 52.9475 19.263C52.8596 19.0626 52.7274 18.8896 52.563 18.7599C51.9324 18.3455 51.247 18.0414 50.5313 17.8586C49.2886 17.5664 48.1263 16.9558 47.139 16.0766C46.7967 15.6959 46.5318 15.2399 46.3615 14.7386C46.1912 14.2373 46.1195 13.702 46.1511 13.1681C46.1001 12.5203 46.1901 11.8685 46.4138 11.2666C46.6374 10.6647 46.9882 10.1299 47.4372 9.70648C48.4655 8.89454 49.714 8.49014 50.9787 8.55944C52.2865 8.58694 53.5899 8.7377 54.8743 9.01006L55.6385 9.17392L55.3589 11.7138C53.408 11.468 52.0287 11.3451 51.221 11.3451Z" fill="#082A51"/>
<path d="M61.2302 19.5795C61.0671 19.5692 60.9039 19.5984 60.7521 19.6649C60.6003 19.7314 60.4637 19.8337 60.3517 19.9645C60.2398 20.0954 60.1553 20.2516 60.1042 20.4221C60.0531 20.5927 60.0366 20.7735 60.056 20.9518C60.056 21.7916 60.4101 22.2012 61.0811 22.2012C61.667 22.1951 62.2496 22.1056 62.8146 21.935H63.1128V19.3951L61.2302 19.5795ZM65.9087 16.548V21.3C65.9219 21.5684 65.9787 21.832 66.0765 22.0784C66.1405 22.1651 66.2196 22.237 66.3092 22.2898C66.3988 22.3425 66.4971 22.3751 66.5984 22.3856V24.7001C66.0293 24.7108 65.4608 24.6559 64.9022 24.5363C64.4492 24.4076 64.0202 24.1927 63.6347 23.9013C62.6848 24.4211 61.639 24.6944 60.5779 24.7001C58.4157 24.7001 57.3532 23.4507 57.3532 20.9518C57.3072 20.4715 57.3642 19.9861 57.5195 19.5344C57.6749 19.0827 57.9244 18.6772 58.2479 18.3505C59.0599 17.7586 60.0135 17.4449 60.9879 17.4492L63.206 17.2649V16.548C63.2254 16.3749 63.2104 16.1992 63.1622 16.033C63.1139 15.8668 63.0335 15.7141 62.9264 15.5853C62.6529 15.3813 62.3237 15.2872 61.9944 15.319L58.0802 15.5034L57.987 13.4551C59.3722 13.0376 60.8005 12.8173 62.2367 12.7997C63.2707 12.6997 64.3013 13.0285 65.1258 13.7214C65.4452 14.1145 65.6877 14.5755 65.8384 15.0758C65.9891 15.5761 66.0448 16.1051 66.0019 16.6299" fill="#082A51"/>
<path d="M71.3515 24.4132H68.5742V12.9838H71.3328V13.6392C72.112 13.0811 73.0131 12.7628 73.9423 12.7175C74.4863 12.6513 75.0366 12.7409 75.5397 12.9779C76.0427 13.2148 76.4813 13.5908 76.8128 14.0694C77.4057 15.3321 77.6762 16.7478 77.5957 18.1659V24.3108H74.8184V18.1659C74.8397 17.4667 74.7319 16.7699 74.5015 16.1177C74.3805 15.8777 74.1969 15.6831 73.9743 15.559C73.7517 15.4348 73.5003 15.3869 73.2527 15.4212C72.6938 15.4181 72.1388 15.5221 71.6124 15.7285H71.3515V24.4132Z" fill="#082A51"/>
<path d="M85.8342 15.6056H83.2806V20.2756C83.2656 20.6032 83.2656 20.9313 83.2806 21.2588C83.2999 21.4466 83.3791 21.6208 83.5042 21.7504C83.6807 21.8967 83.8987 21.9693 84.1193 21.9552H85.7037L85.8155 24.3927C85.1258 24.586 84.4202 24.7026 83.7093 24.7409C83.2454 24.8012 82.7751 24.75 82.3309 24.5908C81.8868 24.4317 81.4795 24.1684 81.1371 23.8192C80.5893 22.7854 80.3482 21.5898 80.4474 20.3985V15.6056H79.2358V12.9838H80.4474V9.80894H83.2433V12.9838H85.7969L85.8342 15.6056Z" fill="#082A51"/>
<path d="M90.9413 19.5793C90.7782 19.569 90.615 19.5982 90.4632 19.6647C90.3114 19.7313 90.1747 19.8335 90.0628 19.9644C89.9508 20.0952 89.8664 20.2514 89.8153 20.4219C89.7642 20.5925 89.7477 20.7733 89.767 20.9516C89.767 21.7914 90.1025 22.2011 90.7922 22.2011C91.372 22.1962 91.9487 22.1067 92.507 21.9348H92.8239V19.3949L90.9413 19.5793ZM95.6198 16.5478V21.2998C95.6147 21.5707 95.6725 21.8385 95.7875 22.0782C95.85 22.1667 95.9288 22.2399 96.0187 22.2928C96.1086 22.3458 96.2077 22.3773 96.3094 22.3854L96.2162 24.7C95.6472 24.7106 95.0787 24.6557 94.5201 24.5361C94.0659 24.4111 93.6363 24.1959 93.2526 23.9011C92.2959 24.4206 91.2442 24.6937 90.1771 24.7C88.0336 24.7 86.9525 23.4505 86.9525 20.9516C86.9065 20.4714 86.9634 19.9859 87.1188 19.5342C87.2741 19.0825 87.5236 18.677 87.8472 18.3503C88.6664 17.759 89.6257 17.4456 90.6058 17.4491L92.8239 17.2647V16.5478C92.8433 16.3747 92.8283 16.199 92.78 16.0328C92.7318 15.8666 92.6514 15.7139 92.5443 15.5851C92.2638 15.3811 91.9288 15.2872 91.5937 15.3188L87.6981 15.5032V13.4549C89.077 13.0376 90.499 12.8173 91.9292 12.7995C92.9639 12.6913 93.9972 13.021 94.8183 13.7212C95.1186 14.1085 95.3444 14.5586 95.4822 15.0444C95.6199 15.5302 95.6667 16.0416 95.6198 16.5478Z" fill="#082A51"/>
<path d="M112.078 24.1676C110.769 24.4984 109.432 24.6769 108.09 24.7001C107.131 24.7398 106.175 24.5728 105.275 24.2085C104.578 23.9123 103.988 23.3726 103.597 22.6723C103.184 21.9182 102.905 21.0838 102.777 20.2144C102.59 19.0379 102.502 17.8447 102.516 16.6504C102.346 14.476 102.747 12.2936 103.672 10.3622C104.204 9.71605 104.869 9.21907 105.612 8.91266C106.354 8.60625 107.153 8.49928 107.94 8.60066C109.337 8.62992 110.725 8.83611 112.078 9.21514V11.7345C110.95 11.5295 109.81 11.4131 108.667 11.3863C108.025 11.3516 107.384 11.4924 106.803 11.796C106.351 12.1611 106.044 12.704 105.946 13.3117C105.716 14.565 105.622 15.8439 105.666 17.1215C105.572 18.4043 105.77 19.6928 106.244 20.8698C106.504 21.2516 106.851 21.5499 107.251 21.7336C107.651 21.9173 108.089 21.9798 108.518 21.9145C109.766 21.9053 111.012 21.7958 112.246 21.5867L112.078 24.1676Z" fill="#082A51"/>
<path d="M114.147 24.4136V12.9842H116.925V14.1926C117.946 13.4963 119.068 12.9975 120.242 12.7179V15.8108C119.291 16.019 118.352 16.2857 117.428 16.6096L117.018 16.753V24.4136H114.147Z" fill="#082A51"/>
<path d="M128.034 12.984H130.811V24.4134H128.052V23.7785C127.265 24.3189 126.369 24.6356 125.443 24.7002C124.896 24.7744 124.342 24.6928 123.833 24.4632C123.323 24.2336 122.876 23.8637 122.535 23.3893C121.944 22.0241 121.687 20.5134 121.789 19.006V12.984H124.567V19.006C124.54 19.7992 124.647 20.5909 124.884 21.341C125.051 21.7507 125.443 21.9555 126.076 21.9555C126.668 21.9634 127.255 21.8523 127.81 21.6278H128.089L128.034 12.984Z" fill="#082A51"/>
<path d="M132.954 15.7287V12.984H140.671V15.7287L136.309 21.6687H140.671V24.4134H132.954V21.6687L137.316 15.7287H132.954Z" fill="#082A51"/>
<path d="M155.322 8.86677H158.341L155.042 24.4132H149.748L146.449 8.86677H149.469L151.929 21.6685H152.861L155.322 8.86677Z" fill="#082A51"/>
<path d="M159.963 12.9841H162.74V24.4135H159.963V12.9841ZM159.963 8.4164H162.74V11.5298H159.963V8.4164Z" fill="#082A51"/>
<path d="M171.091 21.6688H171.389V15.6059C170.714 15.4528 170.027 15.3705 169.338 15.3601C168.22 15.3601 167.661 16.4661 167.661 18.6578C167.602 19.5248 167.729 20.395 168.034 21.1977C168.151 21.4402 168.329 21.6406 168.548 21.775C168.766 21.9093 169.014 21.972 169.264 21.9555C169.894 21.95 170.521 21.8536 171.128 21.6688H171.091ZM174.203 8.4164V24.4135H171.482V23.9424C170.701 24.3863 169.844 24.6445 168.966 24.7002C168.369 24.773 167.764 24.6778 167.21 24.4234C166.656 24.1689 166.17 23.7638 165.797 23.2459C165.105 21.8571 164.794 20.2776 164.902 18.6988C164.757 17.1041 165.105 15.5022 165.89 14.1516C166.295 13.6565 166.798 13.2698 167.36 13.0213C167.923 12.7728 168.529 12.669 169.133 12.7178C169.759 12.7401 170.382 12.8154 170.997 12.9431H171.407V8.4164H174.203Z" fill="#082A51"/>
<path d="M180.037 19.5793C179.871 19.5786 179.707 19.6187 179.557 19.6965C179.406 19.7744 179.274 19.888 179.168 20.0293C179.063 20.1705 178.988 20.3358 178.948 20.513C178.908 20.6903 178.904 20.8751 178.938 21.054C178.938 21.8938 179.273 22.3035 179.963 22.3035C180.549 22.2973 181.131 22.2078 181.696 22.0372H181.994V19.3949L180.037 19.5793ZM184.716 16.5478V21.2998C184.711 21.5707 184.769 21.8385 184.884 22.0782C184.948 22.165 185.027 22.2368 185.116 22.2896C185.206 22.3423 185.304 22.3749 185.405 22.3854V24.7C184.836 24.7106 184.268 24.6557 183.709 24.5361C183.256 24.4074 182.827 24.1925 182.442 23.9011C181.491 24.4182 180.446 24.6914 179.385 24.7C177.223 24.7 176.16 23.4505 176.16 20.9516C176.114 20.4714 176.171 19.9859 176.327 19.5342C176.482 19.0825 176.731 18.677 177.055 18.3503C177.867 17.7584 178.821 17.4447 179.795 17.4491L182.013 17.2647V16.5478C182.033 16.3747 182.018 16.199 181.969 16.0328C181.921 15.8666 181.841 15.7139 181.734 15.5851C181.454 15.378 181.118 15.2839 180.783 15.3188L176.887 15.5032V13.4549C178.266 13.0391 179.688 12.8189 181.118 12.7995C182.153 12.6913 183.186 13.021 184.008 13.7212C184.291 14.1164 184.5 14.5702 184.622 15.0557C184.744 15.5412 184.776 16.0486 184.716 16.5478Z" fill="#082A51"/>
<path d="M190.997 12.984H193.737L195.638 21.8121H196.123L198.006 12.984H200.746L197.092 29.2269H194.371L195.508 24.4134H193.551L190.997 12.984Z" fill="#082A51"/>
<path d="M211.538 11.3451C210.009 11.3451 209.264 11.8981 209.264 12.9837C209.258 13.2091 209.306 13.4323 209.404 13.6303C209.503 13.8283 209.647 13.994 209.823 14.1103C210.663 14.5813 211.543 14.9587 212.451 15.2368C213.524 15.5361 214.519 16.1039 215.359 16.8959C215.667 17.284 215.901 17.7357 216.049 18.2245C216.196 18.7134 216.253 19.2297 216.216 19.743C216.256 20.4304 216.154 21.1187 215.919 21.757C215.683 22.3952 215.32 22.967 214.856 23.4299C213.854 24.3108 212.596 24.7621 211.314 24.6999C209.977 24.6657 208.647 24.4803 207.344 24.1468L206.598 23.983L206.897 21.5455C208.305 21.7744 209.724 21.9112 211.146 21.9552C212.619 21.9552 213.364 21.2792 213.364 19.9069C213.374 19.6826 213.331 19.4593 213.24 19.2585C213.148 19.0576 213.012 18.8859 212.843 18.7599C212.214 18.3414 211.528 18.0371 210.811 17.8586C209.568 17.5664 208.406 16.9558 207.418 16.0766C207.08 15.693 206.818 15.2365 206.648 14.7359C206.478 14.2354 206.404 13.7015 206.431 13.1681C206.38 12.5203 206.47 11.8685 206.693 11.2666C206.917 10.6647 207.268 10.1299 207.717 9.70648C208.745 8.89454 209.994 8.49014 211.258 8.55944C212.572 8.58777 213.882 8.73852 215.172 9.01006L215.918 9.17392L215.694 11.6728C213.731 11.427 212.352 11.3041 211.556 11.3041" fill="#082A51"/>
<path d="M221.529 19.5796C221.367 19.5724 221.206 19.6039 221.056 19.6718C220.907 19.7397 220.773 19.8424 220.663 19.9728C220.553 20.1033 220.47 20.2584 220.42 20.4274C220.37 20.5965 220.354 20.7754 220.373 20.9519C220.373 21.7917 220.708 22.2014 221.379 22.2014C221.965 22.1978 222.548 22.1083 223.113 21.9351H223.43V19.3952L221.529 19.5796ZM226.207 16.5481V21.3001C226.22 21.5685 226.277 21.8321 226.375 22.0785C226.508 22.2487 226.694 22.3583 226.897 22.3857V24.7003C226.328 24.712 225.759 24.6571 225.2 24.5364C224.74 24.412 224.305 24.1969 223.914 23.9014C222.965 24.4233 221.919 24.6967 220.858 24.7003C218.714 24.7003 217.633 23.4508 217.633 20.9519C217.587 20.4717 217.644 19.9862 217.799 19.5345C217.955 19.0828 218.204 18.6773 218.528 18.3506C219.34 17.7587 220.293 17.445 221.268 17.4494L223.504 17.265V16.5481C223.527 16.3732 223.511 16.1949 223.46 16.0277C223.408 15.8605 223.321 15.709 223.206 15.5854C222.934 15.3782 222.604 15.2838 222.274 15.3192L218.36 15.5035V13.4552C219.738 13.0365 221.161 12.8162 222.591 12.7998C223.625 12.6958 224.657 13.025 225.48 13.7215C225.803 14.1119 226.048 14.5725 226.199 15.0735C226.35 15.5746 226.404 16.1049 226.356 16.6301" fill="#082A51"/>
<path d="M231.799 8.4164H229.003V24.4135H231.799V8.4164Z" fill="#082A51"/>
<path d="M240.634 12.984H243.411V24.4134H240.652V23.7785C239.866 24.3189 238.969 24.6356 238.043 24.7002C237.497 24.7744 236.942 24.6928 236.433 24.4632C235.924 24.2336 235.477 23.8637 235.135 23.3893C234.541 22.018 234.284 20.4998 234.39 18.9855V12.984H237.186V19.006C237.139 19.7872 237.222 20.5712 237.428 21.3205C237.596 21.7302 237.987 21.935 238.639 21.935C239.224 21.9413 239.805 21.8302 240.354 21.6073H240.634V12.984Z" fill="#082A51"/>
<path d="M251.762 21.6688H252.06V15.6059C251.385 15.4528 250.698 15.3705 250.009 15.3601C248.891 15.3601 248.332 16.4661 248.332 18.6578C248.273 19.5248 248.4 20.395 248.705 21.1977C248.822 21.4402 249 21.6406 249.219 21.775C249.437 21.9093 249.685 21.972 249.935 21.9555C250.565 21.95 251.192 21.8536 251.799 21.6688H251.762ZM254.874 8.4164V24.4135H252.116V23.9424C251.335 24.3863 250.477 24.6445 249.599 24.7002C249.002 24.7711 248.399 24.6749 247.845 24.4207C247.291 24.1664 246.804 23.7623 246.431 23.2459C245.739 21.8571 245.428 20.2776 245.536 18.6988C245.408 17.0913 245.79 15.4846 246.617 14.1516C247.017 13.6544 247.516 13.266 248.076 13.0172C248.635 12.7684 249.24 12.6659 249.842 12.7178C250.441 12.7171 251.039 12.7651 251.631 12.8612H252.041V8.4164H254.874Z" fill="#082A51"/>
<path d="M48.9842 29.4522C47.5489 29.4522 46.8406 30.0462 46.8406 31.2342C46.8123 31.4952 46.8416 31.7598 46.9259 32.0058C47.0103 32.2518 47.1472 32.4719 47.3253 32.6475C47.9062 32.9898 48.5369 33.2185 49.1892 33.3234C49.9089 33.4346 50.5967 33.7215 51.2022 34.1632C51.4195 34.3943 51.5861 34.6767 51.6894 34.9889C51.7928 35.3012 51.8301 35.6352 51.7987 35.9657C51.8384 36.3926 51.7941 36.824 51.6687 37.2304C51.5432 37.6369 51.3396 38.0089 51.0718 38.3212C50.4617 38.8583 49.6892 39.1218 48.9096 39.0586C48.1113 39.0422 47.3147 38.9738 46.5238 38.8537H46.0391L46.1323 38.0754C47.0655 38.2165 48.0052 38.2986 48.9469 38.3212C49.4941 38.3666 50.0357 38.1755 50.4567 37.7886C50.6376 37.5835 50.7776 37.339 50.8675 37.071C50.9573 36.8029 50.9952 36.5171 50.9786 36.2319C51.0046 35.976 50.9761 35.7168 50.8952 35.4751C50.8143 35.2333 50.6833 35.0156 50.5126 34.8391C50.0697 34.5385 49.5745 34.3431 49.0587 34.2656C48.3877 34.1222 47.9031 33.9993 47.5862 33.8969C47.279 33.7828 46.9897 33.617 46.7288 33.4053C46.4628 33.2145 46.2601 32.9343 46.151 32.6065C46.0292 32.211 45.9724 31.7949 45.9832 31.3775C45.9832 29.616 46.9525 28.7353 48.891 28.7353C49.6523 28.7473 50.412 28.8157 51.165 28.9401H51.6123V29.7184C50.7532 29.5864 49.8884 29.5044 49.0214 29.4726" fill="#082A51"/>
<path d="M54.0541 34.9209H57.7819C57.8357 34.2059 57.6859 33.4901 57.3532 32.8727C57.1837 32.658 56.9704 32.4904 56.7307 32.3836C56.4909 32.2768 56.2316 32.2338 55.9739 32.2582C55.7042 32.2419 55.4345 32.2903 55.1834 32.3999C54.9324 32.5096 54.706 32.6779 54.5201 32.8931C54.1515 33.4956 53.9806 34.218 54.0354 34.9414L54.0541 34.9209ZM57.9124 38.2187H58.3038V38.9356C57.4637 39.0629 56.617 39.1313 55.7689 39.1404C55.3904 39.1789 55.0091 39.115 54.6582 38.9543C54.3073 38.7937 53.9975 38.5411 53.7558 38.2187C53.3281 37.3543 53.1341 36.3736 53.1967 35.392C53.1967 32.8317 54.11 31.5618 55.918 31.5618C56.2815 31.5356 56.6458 31.5952 56.9866 31.7365C57.3274 31.8778 57.6367 32.0976 57.8938 32.3811C58.374 33.1562 58.5977 34.0888 58.5275 35.0234V35.7198H54.0541C54.0003 36.4349 54.1502 37.1506 54.4828 37.768C54.6511 37.9975 54.8687 38.1775 55.1159 38.2919C55.3631 38.4063 55.6323 38.4515 55.8994 38.4235C56.589 38.4235 57.26 38.4235 57.9311 38.3211" fill="#082A51"/>
<path d="M60.783 33.9788C60.7576 34.2138 60.7776 34.4521 60.8419 34.678C60.9061 34.9039 61.0131 35.1124 61.1558 35.2897C61.5105 35.5922 61.9582 35.7318 62.4046 35.6788C62.8476 35.7236 63.2905 35.5929 63.6534 35.3101C63.9332 34.9381 64.0672 34.4593 64.0262 33.9788C64.0682 33.4919 63.9343 33.0063 63.6534 32.6269C63.2979 32.3263 62.8509 32.187 62.4046 32.2377C61.9582 32.1848 61.5105 32.3243 61.1558 32.6269C61.0131 32.8124 60.9064 33.028 60.8423 33.2605C60.7782 33.493 60.758 33.7374 60.783 33.9788ZM60.783 40.1236C60.7584 40.3446 60.7809 40.5689 60.8489 40.7786C60.9168 40.9884 61.0283 41.1779 61.1744 41.3321C61.6494 41.6066 62.1877 41.7206 62.7215 41.6598C63.2811 41.7139 63.8432 41.5932 64.3431 41.3116C64.511 41.1771 64.6441 40.9968 64.7291 40.7884C64.8141 40.58 64.8481 40.3509 64.8277 40.1236C64.8277 39.5501 64.7159 39.2019 64.4736 39.038C64.0454 38.8342 63.578 38.7498 63.1129 38.7922H61.6218C61.3634 38.9636 61.1359 39.1858 60.9507 39.4477C60.8298 39.6699 60.7714 39.9264 60.783 40.1851V40.1236ZM65.6478 40.1851C65.6713 40.5251 65.617 40.8662 65.4901 41.1774C65.3631 41.4886 65.1675 41.76 64.9209 41.9671C64.2411 42.3891 63.463 42.5815 62.6842 42.5201C61.9491 42.5978 61.2095 42.4339 60.5593 42.049C60.3425 41.827 60.177 41.5514 60.0765 41.245C59.976 40.9387 59.9434 40.6104 59.9815 40.2875C59.9625 39.9395 60.0476 39.5942 60.2238 39.3043C60.4582 38.9686 60.7417 38.6779 61.0626 38.444C60.8389 38.2938 60.7271 37.9661 60.7271 37.4608C60.7816 37.1352 60.8889 36.823 61.0439 36.5391L61.1558 36.3138C60.7778 36.1335 60.4648 35.8206 60.2659 35.424C60.0669 35.0275 59.9931 34.5697 60.0561 34.1221C60.0561 32.463 60.8575 31.6437 62.4605 31.6437C62.8617 31.6444 63.2616 31.6924 63.6534 31.7871H63.8585H65.7224V32.5655H64.399C64.7531 33.0499 64.9204 33.6676 64.865 34.286C64.8977 34.6073 64.8607 34.9326 64.757 35.2352C64.6533 35.5378 64.486 35.8092 64.2685 36.027C63.7208 36.4349 63.0647 36.6295 62.4046 36.5801C62.1815 36.6039 61.9567 36.6039 61.7336 36.5801C61.6042 36.8636 61.5162 37.1678 61.4726 37.4813C61.4726 37.8091 61.4726 37.9934 61.7149 38.0753C62.2261 38.1685 62.744 38.2096 63.262 38.1982C63.9062 38.1368 64.5529 38.2789 65.1259 38.6079C65.3227 38.8228 65.4734 39.0833 65.5669 39.3703C65.6604 39.6573 65.6944 39.9637 65.6665 40.267" fill="#082A51"/>
<path d="M71.1277 31.6437H71.8919V38.9356H71.1277V38.403C70.5127 38.8285 69.804 39.0621 69.0774 39.079C68.7335 39.1449 68.3798 39.1095 68.0524 38.9763C67.725 38.8432 67.4355 38.6171 67.2135 38.3211C66.864 37.4167 66.717 36.4333 66.7848 35.4535V31.6437H67.5676V35.3921C67.5163 36.163 67.6115 36.9373 67.8472 37.6657C67.9869 37.8797 68.1769 38.048 68.3968 38.1526C68.6168 38.2572 68.8584 38.2942 69.096 38.2597C69.4184 38.2552 69.7385 38.2001 70.0467 38.0958C70.3049 38.0247 70.5551 37.9216 70.7922 37.7886L71.0532 37.6452L71.1277 31.6437Z" fill="#082A51"/>
<path d="M73.8864 38.9358V31.6439H74.6692V32.6885C75.0514 32.4078 75.4571 32.1677 75.8808 31.9716C76.2975 31.7594 76.7354 31.6013 77.1855 31.5005V32.3813C76.7791 32.4759 76.3802 32.6061 75.9926 32.7705C75.5639 32.9548 75.247 33.1187 75.0234 33.2416L74.6692 33.4669V38.9358H73.8864Z" fill="#082A51"/>
<path d="M78.7512 35.2485C78.6963 36.0688 78.8243 36.8914 79.124 37.645C79.3663 38.0956 79.8882 38.3005 80.7083 38.3005C81.5284 38.3005 82.069 38.0751 82.3113 37.645C82.611 36.8914 82.7389 36.0688 82.6841 35.2485C82.7548 34.4407 82.6056 33.628 82.2554 32.9135C82.0592 32.6841 81.8176 32.5076 81.5493 32.3974C81.281 32.2873 80.9932 32.2466 80.7083 32.2785C80.4278 32.2473 80.1446 32.2863 79.8798 32.3928C79.6151 32.4992 79.3758 32.6702 79.1799 32.893C78.8343 33.6167 78.6855 34.4344 78.7512 35.2485ZM77.931 35.2485C77.8436 34.2287 78.0665 33.2057 78.5648 32.34C79.1639 31.7827 79.9234 31.4769 80.7083 31.4769C81.4932 31.4769 82.2527 31.7827 82.8518 32.34C83.3501 33.2057 83.573 34.2287 83.4856 35.2485C83.5678 36.2667 83.3663 37.2882 82.9078 38.1776C82.6335 38.5092 82.2901 38.7627 81.9069 38.9161C81.5238 39.0695 81.1124 39.1183 80.7083 39.0583C80.3044 39.1132 79.8945 39.0619 79.5121 38.9088C79.1298 38.7557 78.7859 38.5051 78.5089 38.1776C78.059 37.2846 77.858 36.266 77.931 35.2485Z" fill="#082A51"/>
<path d="M87.1948 32.2993C86.151 32.2993 85.6291 32.7089 85.6291 33.5487C85.6203 33.7041 85.6483 33.8594 85.7103 33.9994C85.7724 34.1394 85.8664 34.2593 85.9832 34.3475C86.4757 34.5813 86.9971 34.7331 87.5303 34.7982C88.1322 34.8818 88.7141 35.0903 89.2451 35.4126C89.4328 35.603 89.5764 35.8398 89.664 36.1035C89.7515 36.3671 89.7804 36.6499 89.7484 36.9284C89.7684 37.2391 89.7195 37.5506 89.6058 37.836C89.4922 38.1214 89.3173 38.3722 89.096 38.567C88.5374 38.9443 87.8865 39.1231 87.2321 39.0791C86.6067 39.0665 85.9834 38.998 85.3681 38.8742H84.9767V38.0959C85.7272 38.2503 86.4875 38.3393 87.2507 38.3622C87.6848 38.3888 88.1172 38.2824 88.4995 38.0549C88.6529 37.9413 88.7755 37.7843 88.8542 37.6004C88.933 37.4165 88.965 37.2126 88.9469 37.0103C88.9692 36.8278 88.9464 36.6421 88.8808 36.4727C88.8152 36.3033 88.7092 36.1564 88.5741 36.0476C88.077 35.8079 87.5486 35.6558 87.0084 35.597C86.4124 35.5403 85.8341 35.3448 85.3122 35.0235C85.1403 34.8185 85.0083 34.5772 84.9243 34.3143C84.8402 34.0514 84.8058 33.7724 84.8233 33.4943C84.8407 33.2163 84.9096 32.9451 85.0257 32.6974C85.1419 32.4496 85.3028 32.2305 85.4986 32.0535C86.006 31.7252 86.5877 31.5619 87.1762 31.5824C87.8439 31.595 88.5102 31.6565 89.1706 31.7667H89.5247V32.545C88.7673 32.3991 88.0009 32.3169 87.2321 32.2993" fill="#082A51"/>
<path d="M93.6255 31.6437H94.4456L96.1977 38.1777H96.6823L98.4531 31.6437H99.2732L96.4027 42.2128H95.6013L96.4959 38.9356H95.5826L93.6255 31.6437Z" fill="#082A51"/>
<path d="M109.077 31.8281C109.12 31.2205 108.946 30.6184 108.593 30.1485C108.165 29.7604 107.617 29.5695 107.064 29.616H104.492V34.1427H107.064C108.406 34.1427 109.077 33.3643 109.077 31.8281ZM104.492 34.9415V38.9357H103.672V28.8172H107.064C107.836 28.7452 108.603 29.0019 109.208 29.5341C109.478 29.8296 109.686 30.1859 109.818 30.5785C109.949 30.9711 110.002 31.3905 109.972 31.8077C110.053 32.4687 109.907 33.1392 109.562 33.6883C109.218 34.2374 108.699 34.6258 108.108 34.7777L109.972 38.8742H109.059L107.195 34.8801L104.492 34.9415Z" fill="#082A51"/>
<path d="M112.078 34.921H115.806C115.86 34.2059 115.71 33.4901 115.378 32.8727C115.209 32.6567 114.996 32.4882 114.756 32.3813C114.516 32.2744 114.256 32.2322 113.998 32.2582C113.731 32.2347 113.462 32.2798 113.213 32.39C112.963 32.5002 112.741 32.6724 112.563 32.8932C112.186 33.4913 112.014 34.2172 112.078 34.9415V34.921ZM115.937 38.2187H116.347V38.9356C115.507 39.0629 114.66 39.1313 113.812 39.1404C113.434 39.1703 113.055 39.0961 112.71 38.9244C112.365 38.7527 112.065 38.489 111.836 38.1573C111.403 37.3167 111.203 36.3559 111.258 35.3921C111.258 32.8317 112.172 31.5618 113.998 31.5618C114.359 31.5332 114.721 31.5916 115.059 31.7332C115.397 31.8747 115.703 32.0959 115.955 32.3811C116.442 33.1536 116.672 34.0865 116.608 35.0234V35.7198H112.078C112.02 36.4327 112.163 37.1479 112.488 37.7681C112.66 37.9992 112.88 38.1801 113.131 38.2945C113.381 38.4089 113.654 38.4532 113.924 38.4235C114.595 38.4235 115.266 38.4235 115.937 38.3211" fill="#082A51"/>
<path d="M118.639 36.8669C118.639 37.8501 118.994 38.3417 119.739 38.3417C120.09 38.3368 120.439 38.2956 120.783 38.2188C121.088 38.1608 121.388 38.0716 121.678 37.9525L122.013 37.8296V35.1873L119.851 35.3921C119.68 35.3777 119.509 35.4057 119.349 35.4742C119.19 35.5427 119.047 35.6499 118.93 35.7877C118.814 35.9255 118.727 36.0905 118.677 36.2703C118.626 36.45 118.614 36.64 118.639 36.8259V36.8669ZM122.796 33.774V37.6862C122.796 38.0344 123.113 38.2597 123.653 38.3212V39.0176C123.382 39.0478 123.107 39.0121 122.85 38.913C122.592 38.8139 122.357 38.6538 122.162 38.4441C121.375 38.8259 120.525 39.0279 119.665 39.0381C119.416 39.0505 119.167 39.008 118.933 38.913C118.7 38.818 118.486 38.6725 118.304 38.485C117.982 38.0225 117.823 37.4479 117.857 36.8669C117.835 36.5895 117.865 36.3102 117.946 36.046C118.026 35.7819 118.154 35.5385 118.323 35.3307C118.74 34.9567 119.257 34.7412 119.795 34.7162L122.05 34.4704V33.774C122.08 33.3552 121.967 32.9393 121.734 32.6065C121.617 32.4858 121.479 32.3927 121.328 32.3328C121.178 32.2729 121.017 32.2476 120.857 32.2583C120.122 32.2634 119.387 32.3182 118.658 32.4221H118.248V31.7257C119.089 31.5362 119.943 31.4334 120.802 31.4185C121.087 31.3893 121.376 31.4251 121.648 31.5238C121.921 31.6225 122.172 31.7819 122.386 31.992C122.741 32.4847 122.914 33.1064 122.871 33.733" fill="#082A51"/>
<path d="M126.859 32.2991C125.816 32.2991 125.294 32.7087 125.294 33.5485C125.281 33.7023 125.305 33.857 125.364 33.9973C125.423 34.1375 125.514 34.2582 125.629 34.3473C126.127 34.583 126.655 34.7349 127.195 34.798C127.791 34.8807 128.367 35.0893 128.891 35.4124C129.079 35.6028 129.222 35.8396 129.31 36.1033C129.397 36.3669 129.426 36.6497 129.394 36.9282C129.414 37.2389 129.365 37.5504 129.252 37.8358C129.138 38.1212 128.963 38.372 128.742 38.5668C128.183 38.9441 127.532 39.1229 126.878 39.0789C126.253 39.0663 125.629 38.9978 125.014 38.874H124.623V38.0957C125.373 38.2501 126.133 38.3391 126.897 38.362C127.331 38.3886 127.763 38.2822 128.145 38.0547C128.299 37.9411 128.421 37.7841 128.5 37.6002C128.579 37.4163 128.611 37.2124 128.593 37.0101C128.615 36.8276 128.592 36.6419 128.527 36.4725C128.461 36.3031 128.355 36.1562 128.22 36.0474C127.723 35.8077 127.194 35.6556 126.654 35.5968C126.063 35.5443 125.49 35.3484 124.977 35.0233C124.793 34.8477 124.65 34.6252 124.563 34.3752C124.475 34.1253 124.444 33.8555 124.473 33.5895C124.452 33.289 124.505 32.9878 124.627 32.7175C124.748 32.4472 124.933 32.2178 125.163 32.0533C125.665 31.7278 126.24 31.5645 126.822 31.5822C127.49 31.594 128.156 31.6556 128.816 31.7665H129.171V32.5448C128.413 32.4006 127.647 32.3185 126.878 32.2991" fill="#082A51"/>
<path d="M131.519 34.9208H135.247C135.31 34.2051 135.159 33.4862 134.818 32.8726C134.65 32.6566 134.437 32.4881 134.197 32.3812C133.957 32.2743 133.697 32.2321 133.439 32.2581C133.172 32.2448 132.906 32.2946 132.659 32.4042C132.411 32.5137 132.188 32.6805 132.004 32.893C131.635 33.4955 131.464 34.2179 131.519 34.9413V34.9208ZM135.396 38.2186H135.788V38.9355C134.948 39.0635 134.101 39.1319 133.253 39.1403C132.877 39.1808 132.498 39.1177 132.149 38.9568C131.801 38.7959 131.495 38.5422 131.258 38.2186C130.83 37.3546 130.635 36.3735 130.699 35.3919C130.699 32.8316 131.612 31.5617 133.439 31.5617C133.785 31.5479 134.129 31.6136 134.45 31.7547C134.771 31.8958 135.061 32.1091 135.303 32.381C135.817 33.1208 136.087 34.0311 136.067 34.9618V35.6582H131.519C131.461 36.3711 131.604 37.0863 131.929 37.7065C132.102 37.9362 132.323 38.1161 132.573 38.2304C132.823 38.3446 133.095 38.3898 133.365 38.362C134.036 38.362 134.707 38.3619 135.396 38.2595" fill="#082A51"/>
<path d="M138.285 33.9789C138.262 34.2123 138.281 34.4486 138.342 34.6737C138.403 34.8988 138.504 35.1083 138.639 35.2898C139.005 35.5846 139.455 35.7229 139.907 35.679C140.35 35.7238 140.793 35.593 141.156 35.3103C141.435 34.9382 141.57 34.4595 141.529 33.9789C141.57 33.492 141.437 33.0065 141.156 32.6271C140.8 32.3264 140.353 32.1871 139.907 32.2379C139.455 32.194 139.005 32.3323 138.639 32.6271C138.365 33.0096 138.238 33.4948 138.285 33.9789ZM138.285 40.1238C138.261 40.3448 138.283 40.569 138.351 40.7788C138.419 40.9886 138.531 41.178 138.677 41.3323C139.146 41.6051 139.677 41.7191 140.205 41.66C140.771 41.7135 141.339 41.593 141.845 41.3118C142.011 41.1746 142.142 40.9938 142.226 40.7861C142.311 40.5784 142.347 40.3506 142.33 40.1238C142.33 39.5503 142.218 39.202 141.976 39.0382C141.548 38.8344 141.08 38.7499 140.615 38.7924H139.105C138.856 38.9688 138.635 39.1904 138.453 39.4478C138.332 39.67 138.274 39.9266 138.285 40.1852V40.1238ZM143.15 40.1852C143.174 40.5253 143.119 40.8664 142.992 41.1775C142.865 41.4887 142.67 41.7602 142.423 41.9672C141.737 42.3909 140.953 42.5833 140.168 42.5203C139.382 42.5803 138.599 42.3652 137.931 41.9058C137.714 41.6838 137.549 41.4082 137.448 41.1018C137.348 40.7955 137.315 40.4672 137.353 40.1443C137.334 39.7963 137.419 39.451 137.596 39.1611C137.83 38.8254 138.113 38.5347 138.434 38.3008C138.211 38.1506 138.099 37.8229 138.099 37.3176C138.144 36.9893 138.252 36.6752 138.416 36.3959L138.528 36.1706C138.15 35.9902 137.837 35.6773 137.638 35.2808C137.439 34.8843 137.365 34.4264 137.428 33.9789C137.428 32.3198 138.229 31.5005 139.832 31.5005C140.233 31.5021 140.633 31.5501 141.025 31.6439H141.23H143.094V32.4222H141.771C142.125 32.9067 142.292 33.5244 142.237 34.1428C142.261 34.4634 142.22 34.786 142.117 35.0871C142.014 35.3882 141.851 35.6603 141.64 35.8838C141.093 36.2916 140.436 36.4863 139.776 36.4369C139.553 36.4607 139.329 36.4607 139.105 36.4369C138.974 36.7212 138.88 37.0246 138.826 37.3381C138.826 37.6658 138.826 37.8502 139.087 37.9321C139.598 38.0265 140.116 38.0676 140.634 38.055C141.278 37.9936 141.925 38.1357 142.498 38.4647C142.695 38.6796 142.845 38.94 142.939 39.2271C143.032 39.5141 143.066 39.8204 143.038 40.1238" fill="#082A51"/>
<path d="M148.611 31.6437H149.394V38.9356H148.611V38.403C148.004 38.8307 147.301 39.0647 146.58 39.079C146.236 39.1449 145.882 39.1095 145.555 38.9763C145.227 38.8432 144.938 38.6171 144.716 38.3211C144.366 37.4167 144.219 36.4333 144.287 35.4535V31.6437H145.07V35.3921C145.025 36.1795 145.133 36.9685 145.387 37.7066C145.527 37.9206 145.716 38.0889 145.936 38.1935C146.156 38.2982 146.398 38.3352 146.636 38.3006C146.958 38.2948 147.278 38.2397 147.586 38.1368C147.845 38.0656 148.095 37.9626 148.332 37.8295L148.574 37.6861L148.611 31.6437Z" fill="#082A51"/>
<path d="M151.389 38.9358V31.6439H152.172V32.6885C152.549 32.4118 152.949 32.1719 153.364 31.9716C153.783 31.7653 154.221 31.6074 154.669 31.5005V32.3813C154.264 32.4817 153.866 32.6117 153.476 32.7705L152.507 33.2416L152.172 33.4669V38.9358H151.389Z" fill="#082A51"/>
<path d="M156.254 35.2485C156.181 36.0638 156.29 36.8862 156.57 37.645C156.813 38.0956 157.335 38.3005 158.155 38.3005C158.45 38.3397 158.75 38.3007 159.029 38.1867C159.308 38.0727 159.558 37.8869 159.758 37.645C160.057 36.8914 160.185 36.0688 160.131 35.2485C160.201 34.4407 160.052 33.628 159.702 32.9135C159.506 32.6842 159.264 32.5076 158.996 32.3974C158.728 32.2873 158.44 32.2466 158.155 32.2785C157.871 32.2441 157.584 32.2815 157.316 32.3881C157.048 32.4946 156.806 32.6673 156.608 32.893C156.28 33.6231 156.138 34.4371 156.198 35.2485H156.254ZM155.378 35.2485C155.29 34.2287 155.513 33.2057 156.011 32.34C156.61 31.7827 157.37 31.4769 158.155 31.4769C158.94 31.4769 159.699 31.7827 160.298 32.34C160.797 33.2057 161.02 34.2287 160.932 35.2485C161.014 36.2667 160.813 37.2882 160.354 38.1776C159.739 38.748 158.96 39.0609 158.155 39.0609C157.35 39.0609 156.571 38.748 155.955 38.1776C155.497 37.2882 155.295 36.2667 155.378 35.2485Z" fill="#082A51"/>
<path d="M164.697 32.2993C163.653 32.2993 163.131 32.7089 163.131 33.5487C163.119 33.7047 163.145 33.8615 163.207 34.0023C163.27 34.143 163.366 34.2624 163.486 34.3475C163.978 34.5813 164.499 34.7331 165.033 34.7981C165.635 34.8818 166.216 35.0903 166.747 35.4126C166.935 35.603 167.079 35.8398 167.166 36.1035C167.254 36.3671 167.283 36.6499 167.251 36.9284C167.271 37.2391 167.222 37.5506 167.108 37.836C166.995 38.1214 166.82 38.3722 166.598 38.567C166.038 38.9406 165.389 39.1192 164.734 39.079C164.109 39.0655 163.486 38.997 162.87 38.8742H162.498V38.0959C163.248 38.2513 164.008 38.3404 164.772 38.3622C165.2 38.3893 165.626 38.2828 166.002 38.0549C166.155 37.9413 166.278 37.7843 166.357 37.6004C166.435 37.4165 166.467 37.2126 166.449 37.0103C166.474 36.8297 166.454 36.6452 166.391 36.476C166.329 36.3067 166.227 36.1588 166.095 36.0476C165.598 35.8079 165.07 35.6558 164.529 35.597C163.933 35.5403 163.355 35.3448 162.833 35.0235C162.661 34.8185 162.529 34.5772 162.445 34.3143C162.361 34.0514 162.327 33.7724 162.344 33.4943C162.362 33.2163 162.431 32.9451 162.547 32.6974C162.663 32.4496 162.824 32.2305 163.02 32.0535C163.527 31.7252 164.109 31.5619 164.697 31.5824C165.359 31.5943 166.019 31.6559 166.673 31.7667H167.027V32.545C166.269 32.4008 165.503 32.3187 164.734 32.2993" fill="#082A51"/>
<path d="M172.749 34.614H175.21C176.552 34.614 177.223 33.7332 177.223 32.0127C177.274 31.363 177.109 30.7149 176.757 30.1897C176.55 29.9796 176.306 29.8198 176.039 29.721C175.772 29.6221 175.49 29.5864 175.21 29.6162H172.749V34.614ZM175.21 35.3923H172.749V38.9154H171.929V28.8173H175.21C175.602 28.7779 175.998 28.8265 176.373 28.9603C176.748 29.0941 177.094 29.3103 177.391 29.5957C177.899 30.2716 178.146 31.139 178.08 32.0127C178.08 34.2863 177.13 35.4128 175.21 35.4128" fill="#082A51"/>
<path d="M180.075 34.9209H183.802C183.856 34.2059 183.706 33.4901 183.374 32.8727C183.204 32.658 182.991 32.4904 182.751 32.3836C182.511 32.2768 182.252 32.2338 181.994 32.2582C181.725 32.2419 181.455 32.2903 181.204 32.3999C180.953 32.5096 180.727 32.6779 180.541 32.8931C180.172 33.4956 180.001 34.218 180.056 34.9414L180.075 34.9209ZM183.933 38.2187H184.324V38.9356C183.484 39.0629 182.637 39.1313 181.789 39.1404C181.411 39.1789 181.03 39.115 180.679 38.9543C180.328 38.7937 180.018 38.5411 179.776 38.2187C179.349 37.3543 179.155 36.3736 179.217 35.392C179.217 32.8317 180.131 31.5618 181.939 31.5618C182.302 31.5356 182.666 31.5952 183.007 31.7365C183.348 31.8778 183.657 32.0976 183.914 32.3811C184.376 33.1418 184.592 34.0503 184.529 34.9619V35.6583H180.075C180.021 36.3734 180.171 37.0892 180.503 37.7066C180.672 37.9361 180.889 38.1161 181.136 38.2305C181.384 38.3449 181.653 38.3901 181.92 38.362C182.61 38.362 183.281 38.362 183.952 38.2596" fill="#082A51"/>
<path d="M186.244 38.9358V31.6439H187.027V32.6885C187.403 32.4075 187.802 32.1674 188.22 31.9716C188.639 31.7653 189.076 31.6074 189.525 31.5005V32.3813C189.119 32.4787 188.72 32.6088 188.332 32.7705L187.363 33.2416L187.027 33.4669V38.9358H186.244Z" fill="#082A51"/>
<path d="M192.731 32.2993C191.687 32.2993 191.165 32.7089 191.165 33.5487C191.156 33.7041 191.184 33.8594 191.246 33.9994C191.308 34.1394 191.402 34.2593 191.519 34.3475C192.012 34.5813 192.533 34.7331 193.066 34.7982C193.668 34.8818 194.25 35.0903 194.781 35.4126C194.969 35.603 195.112 35.8398 195.2 36.1035C195.287 36.3671 195.316 36.6499 195.284 36.9284C195.304 37.2391 195.255 37.5506 195.142 37.836C195.028 38.1214 194.853 38.3722 194.632 38.567C194.073 38.9443 193.422 39.1231 192.768 39.0791C192.143 39.0665 191.519 38.998 190.904 38.8742H190.513V38.0959C191.263 38.2503 192.023 38.3393 192.787 38.3622C193.221 38.3888 193.653 38.2824 194.035 38.0549C194.189 37.9413 194.311 37.7843 194.39 37.6004C194.469 37.4165 194.501 37.2126 194.483 37.0103C194.505 36.8278 194.482 36.6421 194.417 36.4727C194.351 36.3033 194.245 36.1564 194.11 36.0476C193.613 35.8079 193.085 35.6558 192.544 35.597C191.948 35.5403 191.37 35.3448 190.848 35.0235C190.676 34.8185 190.544 34.5772 190.46 34.3143C190.376 34.0514 190.342 33.7724 190.359 33.4943C190.377 33.2163 190.446 32.9451 190.562 32.6974C190.678 32.4496 190.839 32.2305 191.035 32.0535C191.542 31.7252 192.124 31.5619 192.712 31.5824C193.38 31.595 194.046 31.6565 194.706 31.7667H195.061V32.545C194.303 32.3991 193.537 32.3169 192.768 32.2993" fill="#082A51"/>
<path d="M197.428 35.2485C197.373 36.0688 197.501 36.8914 197.801 37.645C198.043 38.0956 198.565 38.3005 199.385 38.3005C199.68 38.3397 199.98 38.3007 200.259 38.1867C200.538 38.0727 200.788 37.8869 200.988 37.645C201.288 36.8914 201.416 36.0688 201.361 35.2485C201.431 34.4407 201.282 33.628 200.932 32.9135C200.736 32.6842 200.494 32.5076 200.226 32.3974C199.958 32.2873 199.67 32.2466 199.385 32.2785C199.101 32.2441 198.815 32.2815 198.546 32.3881C198.278 32.4946 198.036 32.6673 197.838 32.893C197.51 33.6231 197.368 34.4371 197.428 35.2485ZM196.608 35.2485C196.52 34.2287 196.743 33.2057 197.241 32.34C197.841 31.7827 198.6 31.4769 199.385 31.4769C200.17 31.4769 200.929 31.7827 201.528 32.34C202.027 33.2057 202.25 34.2287 202.162 35.2485C202.244 36.2667 202.043 37.2882 201.584 38.1776C200.969 38.748 200.19 39.0609 199.385 39.0609C198.58 39.0609 197.801 38.748 197.185 38.1776C196.727 37.2882 196.525 36.2667 196.608 35.2485Z" fill="#082A51"/>
<path d="M204.66 38.9355H203.877V31.6437H204.66V32.1967C205.333 31.7426 206.107 31.5016 206.897 31.5003C207.242 31.4346 207.598 31.4721 207.926 31.609C208.253 31.746 208.542 31.9772 208.761 32.2786C209.119 33.1658 209.266 34.1384 209.189 35.1053V38.9355H208.406V35.1462C208.462 34.3734 208.361 33.5966 208.108 32.8726C207.922 32.4835 207.493 32.2991 206.859 32.2991C206.532 32.2999 206.206 32.3481 205.89 32.4425C205.621 32.5183 205.359 32.6212 205.107 32.7497L204.828 32.8931L204.66 38.9355Z" fill="#082A51"/>
<path d="M211.333 36.8667C211.333 37.8499 211.706 38.3415 212.433 38.3415C212.783 38.3379 213.133 38.2968 213.476 38.2186C213.788 38.163 214.094 38.0738 214.39 37.9523L214.725 37.8294V35.1871L212.488 35.3919C212.137 35.3977 211.799 35.5432 211.538 35.8016C211.336 36.0952 211.237 36.4586 211.258 36.8257L211.333 36.8667ZM215.415 33.7738V37.686C215.415 38.0342 215.75 38.2595 216.291 38.321V39.0174C216.016 39.0507 215.738 39.0166 215.477 38.9174C215.216 38.8182 214.978 38.6565 214.781 38.4439C213.994 38.8279 213.144 39.03 212.283 39.0379C212.037 39.0549 211.79 39.0144 211.559 38.9191C211.327 38.8237 211.117 38.6758 210.941 38.4848C210.607 38.0288 210.441 37.4512 210.475 36.8667C210.454 36.5893 210.484 36.31 210.564 36.0458C210.645 35.7817 210.773 35.5383 210.941 35.3305C211.366 34.9562 211.889 34.7409 212.433 34.716L214.688 34.4702V33.7738C214.705 33.5645 214.684 33.3537 214.626 33.1533C214.568 32.953 214.475 32.7671 214.352 32.6063C214.236 32.4846 214.099 32.3908 213.948 32.3309C213.797 32.2709 213.636 32.2461 213.476 32.2581C212.741 32.2639 212.006 32.3186 211.277 32.4219H210.867V31.7255C211.707 31.536 212.562 31.4332 213.42 31.4183C213.706 31.3865 213.995 31.4212 214.268 31.52C214.541 31.6188 214.792 31.7795 215.005 31.9918C215.368 32.4795 215.543 33.105 215.489 33.7328" fill="#082A51"/>
<path d="M218.416 28.4074H217.633V38.915H218.416V28.4074Z" fill="#082A51"/>
<path d="M221.007 34.921H224.735C224.797 34.2052 224.647 33.4864 224.306 32.8727C224.137 32.6567 223.924 32.4882 223.684 32.3813C223.444 32.2744 223.184 32.2322 222.927 32.2582C222.66 32.245 222.394 32.2948 222.146 32.4043C221.899 32.5139 221.675 32.6806 221.491 32.8932C221.114 33.4913 220.942 34.2172 221.007 34.9415V34.921ZM224.865 38.2187H225.275V38.9356C224.435 39.0636 223.588 39.132 222.74 39.1404C222.364 39.1809 221.985 39.1179 221.637 38.9569C221.289 38.796 220.982 38.5423 220.746 38.2187C220.302 37.3603 220.101 36.3764 220.168 35.3921C220.168 32.8317 221.081 31.5618 222.908 31.5618C223.269 31.5332 223.631 31.5916 223.969 31.7332C224.307 31.8747 224.613 32.0959 224.865 32.3811C225.352 33.1536 225.582 34.0865 225.517 35.0234V35.7198H221.025C220.967 36.4327 221.11 37.1479 221.435 37.7681C221.608 37.9978 221.829 38.1777 222.079 38.2919C222.329 38.4062 222.601 38.4514 222.871 38.4235C223.542 38.4235 224.213 38.4235 224.884 38.3211" fill="#082A51"/>
<path d="M229.264 32.2991C228.22 32.2991 227.698 32.7087 227.698 33.5485C227.685 33.7023 227.71 33.857 227.769 33.9973C227.828 34.1375 227.919 34.2582 228.034 34.3473C228.533 34.5802 229.06 34.732 229.599 34.798C230.201 34.8849 230.782 35.0933 231.314 35.4124C231.495 35.6076 231.633 35.8457 231.717 36.1085C231.801 36.3712 231.829 36.6516 231.799 36.9282C231.824 37.2395 231.777 37.5527 231.663 37.8391C231.549 38.1254 231.371 38.3757 231.146 38.5668C230.588 38.9441 229.937 39.1229 229.282 39.0789C228.657 39.0663 228.034 38.9978 227.419 38.874H227.027V38.0957C227.784 38.2512 228.55 38.3403 229.32 38.362C229.748 38.3869 230.174 38.2805 230.55 38.0547C230.703 37.9411 230.826 37.7841 230.905 37.6002C230.983 37.4163 231.015 37.2124 230.997 37.0101C231.02 36.8276 230.997 36.6419 230.931 36.4725C230.866 36.3031 230.76 36.1562 230.625 36.0474C230.127 35.8077 229.599 35.6556 229.059 35.5968C228.468 35.5443 227.895 35.3484 227.381 35.0233C227.197 34.8477 227.055 34.6252 226.967 34.3752C226.879 34.1253 226.849 33.8555 226.878 33.5895C226.861 33.2895 226.916 32.9899 227.037 32.7203C227.158 32.4508 227.341 32.2208 227.568 32.0533C228.069 31.7278 228.644 31.5645 229.227 31.5822C229.894 31.594 230.561 31.6556 231.221 31.7665H231.575V32.5448C230.817 32.4006 230.051 32.3185 229.282 32.2991" fill="#082A51"/>
<path d="M17.372 0.837686C18.0831 0.520027 18.8789 0.520027 19.59 0.837686L35.1725 9.17418C35.4727 9.33401 35.7251 9.58468 35.9001 9.89672C36.0751 10.2088 36.1654 10.5692 36.1604 10.9357V21.0542C36.1604 21.7301 35.508 21.9964 34.7252 21.4843L20.0001 13.9467L19.385 13.6599C19.1168 13.5212 18.824 13.4492 18.5276 13.4492C18.2312 13.4492 17.9384 13.5212 17.6702 13.6599L10.9227 16.9576C10.3636 17.2239 9.91622 17.3673 9.9535 18.6372V19.6204C9.94057 19.7587 9.9625 19.8982 10.0169 20.0237C10.0713 20.1492 10.156 20.2558 10.2618 20.332C10.3677 20.4081 10.4905 20.4508 10.617 20.4553C10.7434 20.4599 10.8685 20.4261 10.9787 20.3578L17.4838 17.3468C17.8005 17.1782 18.1478 17.0906 18.4996 17.0906C18.8515 17.0906 19.1988 17.1782 19.5155 17.3468L35.1539 25.2736C35.4721 25.4025 35.743 25.6427 35.9249 25.9573C36.1067 26.2718 36.1895 26.6434 36.1604 27.0147V35.597C36.1604 37.0308 35.8249 37.2561 35.1352 37.6452L19.4782 44.3636C18.7907 44.5861 18.0594 44.5861 17.372 44.3636L5.98333 40.4104C5.14456 40.1237 5.36823 39.5297 5.83421 39.3453L21.2303 32.3607C21.6031 32.1968 21.6963 31.9101 21.4353 31.6438C21.239 31.4867 21.0262 31.356 20.8016 31.2546L19.5341 30.5787C19.2246 30.3727 18.873 30.2554 18.5115 30.2375C18.15 30.2197 17.7903 30.3017 17.4652 30.4763L1.36077 37.7477C0.782951 37.9935 0.0373781 37.7477 0.0560174 37.0308V11.0176C0.0373627 10.6456 0.12655 10.2766 0.310756 9.96377C0.494962 9.65093 0.764698 9.41034 1.08118 9.27659L17.372 0.837686Z" fill="#01A4A0"/>
<path d="M18.3412 30.2514V17.1014C17.9946 17.1131 17.6531 17.1965 17.3346 17.3472L10.8668 20.3582C10.7619 20.4303 10.6409 20.4691 10.5172 20.4703C10.3935 20.4716 10.2719 20.4352 10.1658 20.3653C10.0597 20.2953 9.97333 20.1945 9.91611 20.074C9.8589 19.9535 9.83313 19.8179 9.84163 19.6823V18.4738C9.84163 17.3063 10.1958 17.2038 10.8109 16.8966L17.4278 13.6603C17.7148 13.507 18.0239 13.41 18.3412 13.3736V0.571827H18.2107C17.8829 0.546845 17.555 0.617508 17.2601 0.776655L1.00659 9.25653C0.696867 9.39869 0.434291 9.64186 0.254301 9.95319C0.0743117 10.2645 -0.0144261 10.6291 6.50029e-05 10.9976V37.0926C6.50029e-05 37.8915 0.70836 38.0553 1.28618 37.789L17.316 30.5177C17.6419 30.367 17.9884 30.277 18.3412 30.2514Z" fill="url(#paint0_linear_455_94913)"/>
<defs>
<linearGradient id="paint0_linear_455_94913" x1="-5.54327" y1="14.1249" x2="27.6575" y2="27.8245" gradientUnits="userSpaceOnUse">
<stop stop-color="#0DA49E"/>
<stop offset="0.2" stop-color="#0A8891"/>
<stop offset="0.56" stop-color="#055A7C"/>
<stop offset="0.84" stop-color="#013E6F"/>
<stop offset="1" stop-color="#00336A"/>
</linearGradient>
</defs>
</svg>
