<svg width="16" height="16" viewBox="0 0 16 16" fill="none" xmlns="http://www.w3.org/2000/svg">
<path d="M8 11.3333L8 7.33325" stroke="#8289A9" stroke-width="1.5" stroke-linecap="round" stroke-linejoin="round"/>
<path d="M7.33464 5.33317C7.33464 5.70136 7.63312 5.99984 8.0013 5.99984C8.36949 5.99984 8.66797 5.70136 8.66797 5.33317C8.66797 4.96498 8.36949 4.6665 8.0013 4.6665C7.63312 4.6665 7.33464 4.96498 7.33464 5.33317Z" fill="#8289A9"/>
<path fill-rule="evenodd" clip-rule="evenodd" d="M5.29029 2H10.7097C12.5269 2 14 3.59538 14 5.5633V10.4367C14 12.4046 12.5269 14 10.7097 14H5.29029C3.47314 14 2 12.4046 2 10.4367V5.5633C2 3.59538 3.47314 2 5.29029 2Z" stroke="#8289A9" stroke-width="1.5" stroke-linecap="round" stroke-linejoin="round"/>
</svg>
