<svg width="120" height="120" viewBox="0 0 120 120" fill="none" xmlns="http://www.w3.org/2000/svg">
<mask id="mask0_821_9055" style="mask-type:alpha" maskUnits="userSpaceOnUse" x="-13" y="-8" width="155" height="128">
<rect x="-13" y="-8" width="155" height="128" fill="#C4C4C4"/>
</mask>
<g mask="url(#mask0_821_9055)">
<rect x="17" y="6" width="86" height="108" rx="16" fill="#C8D2E9"/>
<rect x="24" y="13" width="71" height="94" rx="9" fill="white"/>
<path d="M24 71H95V98C95 102.971 90.9706 107 86 107H33C28.0294 107 24 102.971 24 98V71Z" fill="url(#paint0_linear_821_9055)"/>
<path d="M80.3175 87.332H75.365V82.3361H80.3175C80.7637 82.3361 81.1917 82.1603 81.5072 81.8475C81.8227 81.5347 82 81.1104 82 80.668C82 80.2256 81.8227 79.8014 81.5072 79.4886C81.1917 79.1757 80.7637 79 80.3175 79H73.6825C73.2364 79.0004 72.8086 79.1762 72.4932 79.489C72.1777 79.8017 72.0004 80.2257 72 80.668V97.332C72 97.7744 72.1773 98.1986 72.4928 98.5114C72.8083 98.8243 73.2363 99 73.6825 99C74.1287 99 74.5567 98.8243 74.8722 98.5114C75.1877 98.1986 75.365 97.7744 75.365 97.332V90.668H80.3175C80.7637 90.668 81.1917 90.4923 81.5072 90.1795C81.8227 89.8667 82 89.4424 82 89C82 88.5576 81.8227 88.1333 81.5072 87.8205C81.1917 87.5077 80.7637 87.332 80.3175 87.332Z" fill="white"/>
<path d="M42.0681 79H38.6702C38.2275 79 37.8029 79.1755 37.4897 79.488C37.1765 79.8005 37.0004 80.2244 37 80.6665V97.3321C37 97.7744 37.176 98.1987 37.4892 98.5115C37.8024 98.8243 38.2273 99 38.6702 99C39.1132 99 39.538 98.8243 39.8513 98.5115C40.1645 98.1987 40.3405 97.7744 40.3405 97.3321V90.6686H42.0681C43.6172 90.6686 45.1029 90.0541 46.1983 88.9602C47.2937 87.8663 47.9091 86.3826 47.9091 84.8357C47.9091 83.2887 47.2937 81.805 46.1983 80.7112C45.1029 79.6173 43.6172 79.0027 42.0681 79.0027V79ZM42.0681 87.33H40.3405V82.3372H42.0681C42.4014 82.3294 42.733 82.3883 43.0433 82.5103C43.3536 82.6323 43.6363 82.8151 43.8749 83.0478C44.1134 83.2805 44.3029 83.5585 44.4324 83.8654C44.5618 84.1723 44.6284 84.502 44.6284 84.835C44.6284 85.168 44.5618 85.4977 44.4324 85.8046C44.3029 86.1115 44.1134 86.3895 43.8749 86.6222C43.6363 86.8549 43.3536 87.0376 43.0433 87.1597C42.733 87.2817 42.4014 87.3405 42.0681 87.3328V87.33Z" fill="white"/>
<path d="M57.823 79H53.6065C53.1804 79 52.7718 79.1757 52.4705 79.4885C52.1693 79.8013 52 80.2256 52 80.6679V97.3321C51.9998 97.5512 52.0413 97.7681 52.1219 97.9706C52.2026 98.173 52.3209 98.357 52.4701 98.5119C52.6193 98.6668 52.7965 98.7896 52.9915 98.8734C53.1865 98.9572 53.3955 99.0002 53.6065 99H57.823C60.3774 99 62.8272 97.9464 64.6335 96.0711C66.4398 94.1957 67.4545 91.6522 67.4545 89C67.4545 86.3478 66.4398 83.8043 64.6335 81.9289C62.8272 80.0536 60.3774 79 57.823 79ZM57.823 95.6628H55.209V82.3372H57.823C59.5251 82.3372 61.1576 83.0392 62.3612 84.2889C63.5648 85.5385 64.2409 87.2334 64.2409 89.0007C64.2409 90.7679 63.5648 92.4628 62.3612 93.7125C61.1576 94.9621 59.5251 95.6642 57.823 95.6642V95.6628Z" fill="white"/>
<path d="M44.2513 66.25L44.2503 66.25C43.2193 66.25 42.2227 65.8791 41.3153 65.1632C40.5549 64.5636 40.1311 63.9215 39.9217 63.304C39.7129 62.6882 39.7223 62.1124 39.804 61.6506L39.8041 61.6498C39.9919 60.6081 40.6385 59.6143 41.5396 58.6909C42.443 57.7651 43.6208 56.8913 44.9063 56.0906C47.4402 54.5126 50.4252 53.1996 52.6404 52.3234C55.009 46.6803 57.073 40.068 58.3704 35.0669C57.0924 32.4757 56.2237 30.2495 55.7726 28.4015C55.3185 26.5413 55.2794 25.032 55.7051 23.9146C55.896 23.3761 56.2334 22.8965 56.6815 22.5236C57.1298 22.1507 57.673 21.8975 58.2558 21.7883L58.4157 21.7552L58.4545 21.7472L58.4939 21.7515L58.6582 21.7697L58.6588 21.7698C58.8199 21.7881 60.0329 21.9649 61.0097 23.2211C62.2744 24.8444 62.5271 27.4388 61.86 30.8459L61.86 30.846C61.6726 31.8022 61.362 33.1584 60.951 34.7871C63.2854 39.3574 66.5182 44.3721 69.1941 47.9035C71.4265 47.6153 73.5385 47.516 75.3484 47.697C77.0793 47.8692 78.1617 48.3147 78.833 48.8476C79.5097 49.3846 79.7499 49.9956 79.8223 50.4523M44.2513 66.25L79.5754 50.4915M44.2513 66.25C44.7566 66.2479 45.2577 66.1625 45.7324 65.9975M44.2513 66.25L45.651 65.7612M79.8223 50.4523L79.5754 50.4915M79.8223 50.4523C79.8223 50.4523 79.8223 50.4523 79.8223 50.4523L79.5754 50.4915M79.8223 50.4523C80.0393 51.8189 78.9804 53.1359 77.3545 53.7927L77.3541 53.7929C75.0669 54.7123 71.369 54.4466 68.401 50.7989L68.4004 50.7982C68.3042 50.6792 68.2051 50.5562 68.1044 50.431M79.5754 50.4915C79.7661 51.6924 78.835 52.925 77.2608 53.5609C75.0751 54.4396 71.4937 54.2036 68.5949 50.6411C68.4701 50.4867 68.3403 50.3255 68.2084 50.1615M68.1044 50.431C68.152 50.4234 68.1995 50.4159 68.247 50.4085L68.2084 50.1615M68.1044 50.431C68.0742 50.3936 68.044 50.3559 68.0136 50.3181L68.2084 50.1615M68.1044 50.431C64.4182 51.0176 60.1337 52.1277 55.7947 53.6586L55.7944 53.6587C55.3665 53.8089 54.9496 53.9602 54.5438 54.1125M68.2084 50.1615C64.4729 50.7447 60.1186 51.8679 55.7116 53.4228C55.247 53.5859 54.7953 53.7502 54.3565 53.9159M54.5438 54.1125C54.5579 54.08 54.5719 54.0475 54.586 54.015L54.3565 53.9159M54.5438 54.1125C54.5107 54.1249 54.4777 54.1373 54.4448 54.1497L54.3565 53.9159M54.5438 54.1125C53.0616 57.5317 51.5905 60.2402 50.1356 62.2203C48.6704 64.2143 47.2028 65.4955 45.7324 65.9975M54.3565 53.9159C51.3715 60.8279 48.4504 64.8058 45.651 65.7612M45.651 65.7612L45.7331 65.9973C45.7329 65.9974 45.7326 65.9974 45.7324 65.9975M45.651 65.7612L45.7317 65.9978C45.732 65.9977 45.7322 65.9976 45.7324 65.9975M58.5191 23.8906C58.1479 24.0143 57.9186 24.2446 57.7716 24.6292C57.2373 26.0188 57.8934 28.6002 59.1961 31.6536C59.228 31.5089 59.2587 31.3671 59.2882 31.2284M58.5191 23.8906L58.4174 24.119C58.4478 24.1325 58.4777 24.1469 58.507 24.1622M58.5191 23.8906L58.5981 24.1278C58.5664 24.1384 58.536 24.1498 58.507 24.1622M58.5191 23.8906C58.8099 24.0201 59.0596 24.2195 59.2433 24.469C59.7291 25.0944 60.435 26.7049 59.6987 30.466C59.6285 30.8276 59.5479 31.2163 59.4575 31.629C59.3998 31.4944 59.3433 31.3609 59.2882 31.2284M58.507 24.1622C58.2666 24.2646 58.1145 24.4322 58.0051 24.7185L58.0049 24.7189C57.7544 25.3704 57.7842 26.3563 58.0729 27.6152C58.3162 28.6759 58.736 29.9004 59.2882 31.2284M58.507 24.1622C58.7207 24.2734 58.9037 24.4294 59.0419 24.6172L59.0419 24.6172L59.0458 24.6224C59.4706 25.1692 60.1821 26.6957 59.4533 30.418L59.4533 30.4184C59.4035 30.6748 59.3484 30.9452 59.2882 31.2284M44.7514 59.0658C46.2428 57.9433 48.3951 56.702 51.2481 55.4461C50.2501 57.5386 49.2201 59.385 48.1891 60.8194C47.0545 62.3979 45.9455 63.4389 44.9084 63.7949C44.5481 63.9156 44.2146 63.9391 43.8894 63.8706C43.5619 63.8017 43.2272 63.6362 42.8715 63.3558L42.8714 63.3557C42.4977 63.0612 42.3289 62.8007 42.2545 62.5918C42.1805 62.384 42.1909 62.2028 42.2192 62.0478L42.2193 62.0473C42.2837 61.69 42.5077 61.249 42.9302 60.7375C43.3503 60.229 43.9538 59.6663 44.7514 59.0658ZM75.0934 50.0313L75.0938 50.0314C75.9593 50.1177 76.5512 50.2875 76.9242 50.4611C77.1111 50.548 77.2367 50.633 77.314 50.7035C77.3891 50.772 77.401 50.8103 77.4015 50.8101C77.4019 50.8172 77.4013 50.8485 77.3717 50.9083C77.3407 50.971 77.2852 51.0491 77.2001 51.1354C77.0302 51.3076 76.7613 51.4929 76.4037 51.637C75.1062 52.1551 72.9606 52.0445 70.9688 50.0673C72.5353 49.9287 73.9292 49.9129 75.0934 50.0313ZM56.3444 49.6216C57.8107 45.6951 59.0721 41.6547 60.0346 38.2219C61.9819 41.7074 64.1434 45.0821 66.5078 48.3287C62.8311 49.003 59.0039 50.0717 55.7486 51.1814C55.9468 50.6743 56.1454 50.1544 56.3444 49.6216Z" fill="url(#paint1_linear_821_9055)" stroke="url(#paint2_linear_821_9055)" stroke-width="0.5"/>
</g>
<defs>
<linearGradient id="paint0_linear_821_9055" x1="91.4147" y1="70.5998" x2="39.2713" y2="118.43" gradientUnits="userSpaceOnUse">
<stop stop-color="#FF996D"/>
<stop offset="1" stop-color="#FF487F"/>
</linearGradient>
<linearGradient id="paint1_linear_821_9055" x1="77.6003" y1="21.5109" x2="32.0316" y2="40.5855" gradientUnits="userSpaceOnUse">
<stop stop-color="#FF996D"/>
<stop offset="1" stop-color="#FF487F"/>
</linearGradient>
<linearGradient id="paint2_linear_821_9055" x1="77.6003" y1="21.5109" x2="32.0316" y2="40.5855" gradientUnits="userSpaceOnUse">
<stop stop-color="#FF996D"/>
<stop offset="1" stop-color="#FF487F"/>
</linearGradient>
</defs>
</svg>
