<svg width="24" height="24" viewBox="0 0 24 24" fill="none" xmlns="http://www.w3.org/2000/svg">
<g clip-path="url(#clip0_1_4514)">
<path d="M22.47 7.92C22.4743 7.88012 22.4743 7.83988 22.47 7.8C22.1155 6.92823 21.6518 6.10498 21.09 5.35C21.0477 5.25525 20.9864 5.17017 20.91 5.1C19.8393 3.73354 18.4713 2.62893 16.91 1.87H16.85H16.77C15.2824 1.14856 13.6533 0.76604 12 0.75C11.3899 0.752306 10.7811 0.805827 10.18 0.91H10.05C8.36314 1.20807 6.76621 1.88609 5.38018 2.89269C3.99414 3.8993 2.85533 5.20811 2.05 6.72C2.04441 6.7531 2.04441 6.7869 2.05 6.82C1.20155 8.41513 0.755302 10.1933 0.75 12C0.754469 14.4458 1.55515 16.8236 3.03097 18.7739C4.50679 20.7242 6.5775 22.141 8.93 22.81H9.05C9.42195 22.9134 9.79915 22.9968 10.18 23.06C10.2627 23.0744 10.3473 23.0744 10.43 23.06C12.0198 23.2974 13.642 23.189 15.1861 22.742C16.7301 22.295 18.1594 21.5201 19.3765 20.4701C20.5935 19.4201 21.5697 18.1198 22.2382 16.658C22.9067 15.1962 23.2518 13.6074 23.25 12C23.2503 10.6029 22.9856 9.21846 22.47 7.92ZM8.47 21.08C6.63859 20.3702 5.06458 19.1232 3.95455 17.5028C2.84452 15.8823 2.25034 13.9642 2.25 12C2.24993 10.8451 2.46002 9.69973 2.87 8.62L3.43 9.38C3.52227 9.50262 3.59016 9.6418 3.63 9.79L3.91 10.91C4.06449 11.5511 4.45333 12.1112 5 12.48L5.2 12.61C5.36202 12.7206 5.49364 12.8701 5.58276 13.0448C5.67188 13.2196 5.71563 13.4139 5.71 13.61V14.25C5.71018 14.4488 5.78931 14.6395 5.93 14.78L6.27 15.11V15.91C6.27017 16.1088 6.34931 16.2995 6.49 16.44L7.83 17.78C7.95518 17.9077 8.05077 18.0613 8.11 18.23L8.42 19.17C8.45937 19.286 8.47964 19.4075 8.48 19.53L8.47 21.08ZM11.23 19.18V19.65C11.2322 19.9022 11.1514 20.1482 11 20.35L10.09 21.56H9.97V19.49C9.96823 19.2043 9.92097 18.9208 9.83 18.65L9.52 17.72C9.38442 17.3429 9.16568 17.0011 8.88 16.72L7.78 15.56V14.76C7.77983 14.5612 7.70069 14.3705 7.56 14.23L7.22 13.9V13.57C7.21559 13.1294 7.10181 12.6968 6.88886 12.3111C6.67592 11.9253 6.37048 11.5985 6 11.36L5.81 11.23C5.56762 11.0723 5.39287 10.8298 5.32 10.55L5.08 9.43C5.00268 9.08375 4.84893 8.75917 4.63 8.48L3.63 7.09C4.76604 5.14764 6.53469 3.65435 8.64 2.86C8.53925 3.14239 8.48849 3.44018 8.49 3.74V4.26C8.48029 4.42256 8.52521 4.5837 8.61763 4.71779C8.71004 4.85187 8.84463 4.95121 9 5L10.14 5.39V5.64L9.81 5.97L9.72 6.09L8.72 7.59C8.67832 7.6535 8.62782 7.71074 8.57 7.76L7.92 8.42C7.79064 8.54302 7.63751 8.6383 7.47 8.7L6.24 9.11C6.08957 9.15846 5.9583 9.25321 5.86492 9.38071C5.77153 9.50822 5.72081 9.66196 5.72 9.82V10.37C5.72017 10.5688 5.79931 10.7595 5.94 10.9L7 12C7.24649 12.2475 7.53949 12.4438 7.86213 12.5777C8.18477 12.7116 8.53069 12.7803 8.88 12.78H9.63L10.55 13.09C10.7923 13.1733 11.0022 13.3307 11.15 13.54L11.61 14.24C11.8617 14.6199 12.2058 14.9295 12.61 15.14L13.15 15.41L13.4 15.66L12.98 16.56L12.52 17.03C12.4593 17.0841 12.4086 17.1484 12.37 17.22L11.88 18.22L11.41 18.68C11.2997 18.8228 11.2431 18.9997 11.25 19.18H11.23ZM12 21.75H11.85L12.22 21.26C12.5616 20.7962 12.7472 20.236 12.75 19.66V19.5L13.08 19.16C13.1406 19.1082 13.1885 19.0432 13.22 18.97L13.72 17.97L14.19 17.5C14.2475 17.4454 14.2949 17.3811 14.33 17.31L14.88 16.2C14.9312 16.0974 14.9586 15.9846 14.96 15.87V15.32C14.9598 15.1212 14.8807 14.9305 14.74 14.79L14.19 14.23C14.1318 14.1723 14.0641 14.1249 13.99 14.09L13.34 13.77C13.1603 13.6783 13.0083 13.5402 12.9 13.37L12.43 12.68C12.0947 12.2061 11.6136 11.8549 11.06 11.68L10.06 11.34C9.98065 11.3256 9.89935 11.3256 9.82 11.34H8.92C8.76761 11.3405 8.61664 11.3107 8.47587 11.2523C8.3351 11.1939 8.20734 11.1082 8.1 11L7.45 10.35L7.94 10.18C8.31714 10.0444 8.65892 9.82568 8.94 9.54L9.59 8.89C9.74664 8.74076 9.88434 8.57284 10 8.39L11 6.95L11.5 6.45C11.5683 6.37993 11.622 6.29701 11.6581 6.20603C11.6941 6.11506 11.7118 6.01784 11.71 5.92V4.82C11.712 4.66149 11.6637 4.50643 11.5721 4.37707C11.4804 4.24771 11.3502 4.15071 11.2 4.1L10 3.72C10.0029 3.49632 10.0687 3.27797 10.19 3.09L10.69 2.35C12.2966 2.11265 13.9374 2.29878 15.45 2.89L15.21 3.38C15.1578 3.48218 15.1304 3.59524 15.13 3.71V4.26C15.1286 4.3989 15.1663 4.5354 15.2388 4.65389C15.3113 4.77238 15.4157 4.86806 15.54 4.93L16.54 5.43L16.79 5.68V6C16.7871 6.18101 16.7426 6.35893 16.66 6.52L16.31 7.22C16.2589 7.32617 16.2316 7.4422 16.23 7.56V8.11C16.23 8.30891 16.309 8.49968 16.4497 8.64033C16.5903 8.78098 16.7811 8.86 16.98 8.86H17.7L17.47 9.33L17 9.81C16.8593 9.95052 16.7802 10.1412 16.78 10.34V10.82C16.7805 11.3001 16.9109 11.7711 17.1573 12.183C17.4038 12.595 17.7572 12.9326 18.18 13.16L18.65 13.64C18.7917 13.7789 18.9816 13.8577 19.18 13.86H19.43L19.12 14.78C19.0315 15.0546 18.9876 15.3415 18.99 15.63V15.84C18.9877 16.3659 19.1408 16.8808 19.43 17.32L19.78 17.85C18.8749 19.0594 17.7007 20.0414 16.3503 20.7183C15 21.3952 13.5105 21.7484 12 21.75ZM20.66 16.45C20.5483 16.2662 20.4895 16.0551 20.49 15.84V15.63C20.4896 15.5042 20.5099 15.3792 20.55 15.26L21 13.9C21.0447 13.7676 21.0515 13.6254 21.0197 13.4894C20.9879 13.3533 20.9187 13.2288 20.82 13.13L20.27 12.58C20.2018 12.5085 20.1195 12.452 20.0282 12.4141C19.937 12.3762 19.8388 12.3578 19.74 12.36H19.5L19.16 12C19.0882 11.9353 19.0073 11.8815 18.92 11.84C18.7325 11.7473 18.5737 11.6052 18.461 11.429C18.3482 11.2528 18.2856 11.0491 18.28 10.84V10.67L18.61 10.34C18.6653 10.2835 18.7124 10.2195 18.75 10.15L19.3 9C19.373 8.85914 19.3988 8.69854 19.3736 8.54189C19.3484 8.38524 19.2735 8.24085 19.16 8.13L18.61 7.58C18.4695 7.43931 18.2788 7.36018 18.08 7.36H17.91L18 7.21C18.1847 6.83342 18.2805 6.41945 18.28 6V5.37C18.2798 5.17115 18.2007 4.98052 18.06 4.84L17.5 4.29C17.4482 4.22939 17.3832 4.18149 17.31 4.15L16.65 3.82L16.8 3.52C17.8438 4.11213 18.7693 4.89186 19.53 5.82L19 7.34C18.9553 7.47237 18.9485 7.6146 18.9803 7.75065C19.0121 7.8867 19.0813 8.01116 19.18 8.11L19.73 8.66C19.8705 8.80069 20.0612 8.87982 20.26 8.88H21.2C21.6229 10.1146 21.7904 11.4222 21.6924 12.7235C21.5944 14.0248 21.233 15.2927 20.63 16.45H20.66Z" fill="#96A6CD"/>
</g>
<defs>
<clipPath id="clip0_1_4514">
<rect width="24" height="24" fill="white"/>
</clipPath>
</defs>
</svg>
