<svg width="24" height="24" viewBox="0 0 24 24" fill="none" xmlns="http://www.w3.org/2000/svg">
<path fill-rule="evenodd" clip-rule="evenodd" d="M19.0714 19.0699C16.0152 22.1263 11.4898 22.7867 7.78642 21.074C7.23971 20.8539 6.79148 20.676 6.36537 20.676C5.17849 20.683 3.70117 21.8339 2.93336 21.067C2.16555 20.2991 3.31726 18.8206 3.31726 17.6266C3.31726 17.2004 3.14642 16.7602 2.92632 16.2124C1.21283 12.5096 1.87411 7.98269 4.93026 4.92721C8.8316 1.02443 15.17 1.02443 19.0714 4.9262C22.9797 8.83501 22.9727 15.1681 19.0714 19.0699Z" stroke="#050B1E" stroke-width="1.5" stroke-linecap="round" stroke-linejoin="round"/>
<path fill-rule="evenodd" clip-rule="evenodd" d="M11.7782 12.2238C13.6678 14.1128 14.0964 11.9274 15.2995 13.1296C16.4594 14.2892 17.126 14.5215 15.6565 15.9907C15.4724 16.1386 14.3029 17.9183 10.1927 13.8093C6.08204 9.69979 7.86075 8.52905 8.00872 8.34503C9.48183 6.87182 9.71015 7.54234 10.87 8.70189C12.0731 9.90466 9.88863 10.3347 11.7782 12.2238Z" stroke="#050B1E" stroke-width="1.5" stroke-linecap="round" stroke-linejoin="round"/>
</svg>
